<mxfile host="app.diagrams.net" agent="Mozilla/5.0 (Macintosh; Intel Mac OS X 10_15_7) AppleWebKit/537.36 (KHTML, like Gecko) Chrome/138.0.0.0 Safari/537.36" version="28.0.7">
  <diagram name="Page-1" id="FttZ2sc3jmcrSqYJWjK5">
    <mxGraphModel dx="951" dy="1752" grid="1" gridSize="10" guides="1" tooltips="1" connect="1" arrows="1" fold="1" page="1" pageScale="1" pageWidth="827" pageHeight="1169" math="1" shadow="0">
      <root>
        <mxCell id="0" />
        <mxCell id="1" parent="0" />
        <mxCell id="SDA9QaCyXNHpVYX47S2c-60" value="" style="rounded=0;whiteSpace=wrap;html=1;fontSize=14;" vertex="1" parent="1">
          <mxGeometry x="150" y="-561" width="150" height="84" as="geometry" />
        </mxCell>
        <mxCell id="SDA9QaCyXNHpVYX47S2c-25" style="edgeStyle=orthogonalEdgeStyle;rounded=0;orthogonalLoop=1;jettySize=auto;html=1;exitX=1;exitY=0.5;exitDx=0;exitDy=0;fontSize=14;" edge="1" parent="1" source="SDA9QaCyXNHpVYX47S2c-2">
          <mxGeometry relative="1" as="geometry">
            <mxPoint x="440" y="-644.6666666666667" as="targetPoint" />
          </mxGeometry>
        </mxCell>
        <mxCell id="SDA9QaCyXNHpVYX47S2c-2" value="&lt;b&gt;&lt;font face=&quot;Times New Roman&quot;&gt;Người ký&lt;/font&gt;&lt;/b&gt;" style="rounded=1;whiteSpace=wrap;html=1;fillColor=#d5e8d4;strokeColor=#82b366;fontSize=14;" vertex="1" parent="1">
          <mxGeometry x="190" y="-660" width="70" height="30" as="geometry" />
        </mxCell>
        <mxCell id="SDA9QaCyXNHpVYX47S2c-9" style="edgeStyle=orthogonalEdgeStyle;rounded=0;orthogonalLoop=1;jettySize=auto;html=1;exitX=0.5;exitY=1;exitDx=0;exitDy=0;fontSize=14;" edge="1" parent="1" source="SDA9QaCyXNHpVYX47S2c-4">
          <mxGeometry relative="1" as="geometry">
            <mxPoint x="230" y="-570" as="targetPoint" />
          </mxGeometry>
        </mxCell>
        <mxCell id="SDA9QaCyXNHpVYX47S2c-41" style="edgeStyle=orthogonalEdgeStyle;rounded=0;orthogonalLoop=1;jettySize=auto;html=1;exitX=0.75;exitY=1;exitDx=0;exitDy=0;fontSize=14;" edge="1" parent="1">
          <mxGeometry relative="1" as="geometry">
            <mxPoint x="490.33333333333326" y="-570" as="targetPoint" />
            <mxPoint x="490.5" y="-630" as="sourcePoint" />
          </mxGeometry>
        </mxCell>
        <mxCell id="SDA9QaCyXNHpVYX47S2c-4" value="&lt;font face=&quot;Times New Roman&quot;&gt;&lt;b&gt;Người dùng&lt;/b&gt;&lt;/font&gt;" style="rounded=1;whiteSpace=wrap;html=1;fillColor=#e1d5e7;strokeColor=#9673a6;fontSize=14;" vertex="1" parent="1">
          <mxGeometry x="450" y="-660" width="80" height="30" as="geometry" />
        </mxCell>
        <mxCell id="SDA9QaCyXNHpVYX47S2c-12" style="edgeStyle=orthogonalEdgeStyle;rounded=0;orthogonalLoop=1;jettySize=auto;html=1;exitX=0.5;exitY=1;exitDx=0;exitDy=0;fontSize=14;" edge="1" parent="1">
          <mxGeometry relative="1" as="geometry">
            <mxPoint x="227.66666666666674" y="-661" as="targetPoint" />
            <mxPoint x="227.5" y="-710" as="sourcePoint" />
          </mxGeometry>
        </mxCell>
        <mxCell id="SDA9QaCyXNHpVYX47S2c-57" style="edgeStyle=orthogonalEdgeStyle;rounded=0;orthogonalLoop=1;jettySize=auto;html=1;exitX=1;exitY=0.5;exitDx=0;exitDy=0;entryX=0.5;entryY=0;entryDx=0;entryDy=0;fontSize=14;" edge="1" parent="1" source="SDA9QaCyXNHpVYX47S2c-11" target="SDA9QaCyXNHpVYX47S2c-4">
          <mxGeometry relative="1" as="geometry" />
        </mxCell>
        <mxCell id="SDA9QaCyXNHpVYX47S2c-11" value="&lt;font face=&quot;Times New Roman&quot;&gt;&lt;b&gt;Bộ sinh khoá&lt;/b&gt;&lt;/font&gt;" style="rounded=1;whiteSpace=wrap;html=1;fillColor=#ffe6cc;strokeColor=#d79b00;fontSize=14;" vertex="1" parent="1">
          <mxGeometry x="175" y="-761" width="105" height="50" as="geometry" />
        </mxCell>
        <mxCell id="SDA9QaCyXNHpVYX47S2c-13" value="&lt;font face=&quot;Times New Roman&quot;&gt;Thông điệp &lt;i&gt;m&lt;/i&gt;&lt;/font&gt;" style="text;html=1;align=center;verticalAlign=middle;resizable=0;points=[];autosize=1;strokeColor=none;fillColor=none;fontSize=14;" vertex="1" parent="1">
          <mxGeometry x="300" y="-624" width="100" height="30" as="geometry" />
        </mxCell>
        <mxCell id="SDA9QaCyXNHpVYX47S2c-14" value="&lt;font face=&quot;Times New Roman&quot;&gt;Khoá bí mật &lt;i&gt;sk&lt;/i&gt;:&amp;nbsp;&lt;/font&gt;" style="text;html=1;align=center;verticalAlign=middle;resizable=0;points=[];autosize=1;strokeColor=none;fillColor=none;fontSize=14;" vertex="1" parent="1">
          <mxGeometry x="121" y="-710" width="120" height="30" as="geometry" />
        </mxCell>
        <mxCell id="SDA9QaCyXNHpVYX47S2c-15" value="&lt;font face=&quot;Times New Roman&quot;&gt;Khoá công khai &lt;i&gt;pk:&lt;/i&gt;&amp;nbsp;&lt;/font&gt;" style="text;html=1;align=center;verticalAlign=middle;resizable=0;points=[];autosize=1;strokeColor=none;fillColor=none;fontSize=14;" vertex="1" parent="1">
          <mxGeometry x="222" y="-711" width="140" height="30" as="geometry" />
        </mxCell>
        <mxCell id="SDA9QaCyXNHpVYX47S2c-16" style="edgeStyle=orthogonalEdgeStyle;rounded=0;orthogonalLoop=1;jettySize=auto;html=1;exitX=0.5;exitY=1;exitDx=0;exitDy=0;entryX=0.588;entryY=-0.017;entryDx=0;entryDy=0;entryPerimeter=0;fontSize=14;" edge="1" parent="1" source="SDA9QaCyXNHpVYX47S2c-2">
          <mxGeometry relative="1" as="geometry">
            <mxPoint x="224.98000000000002" y="-571.3600000000001" as="targetPoint" />
          </mxGeometry>
        </mxCell>
        <mxCell id="SDA9QaCyXNHpVYX47S2c-17" value="&lt;font face=&quot;Times New Roman&quot;&gt;Khoá bí mật: &lt;i&gt;x&lt;/i&gt;&lt;/font&gt;" style="text;html=1;align=center;verticalAlign=middle;resizable=0;points=[];autosize=1;strokeColor=none;fillColor=none;fontSize=14;" vertex="1" parent="1">
          <mxGeometry x="125" y="-620" width="110" height="30" as="geometry" />
        </mxCell>
        <mxCell id="SDA9QaCyXNHpVYX47S2c-23" value="&lt;span style=&quot;font-family: &amp;quot;Times New Roman&amp;quot;;&quot;&gt;$$(p, q, g, Hash)$$&lt;/span&gt;" style="text;html=1;align=center;verticalAlign=middle;resizable=0;points=[];autosize=1;strokeColor=none;fillColor=none;fontSize=14;" vertex="1" parent="1">
          <mxGeometry x="162" y="-736" width="130" height="30" as="geometry" />
        </mxCell>
        <mxCell id="SDA9QaCyXNHpVYX47S2c-26" value="&lt;font face=&quot;Times New Roman&quot;&gt;Khoá công khai&amp;nbsp;&lt;/font&gt;" style="text;html=1;align=center;verticalAlign=middle;resizable=0;points=[];autosize=1;strokeColor=none;fillColor=none;fontSize=14;" vertex="1" parent="1">
          <mxGeometry x="290" y="-667.67" width="120" height="30" as="geometry" />
        </mxCell>
        <mxCell id="SDA9QaCyXNHpVYX47S2c-29" value="&lt;span style=&quot;color: rgb(0, 0, 0); font-family: &amp;quot;Times New Roman&amp;quot;; font-style: normal; font-variant-ligatures: normal; font-variant-caps: normal; font-weight: 400; letter-spacing: normal; orphans: 2; text-align: center; text-indent: 0px; text-transform: none; widows: 2; word-spacing: 0px; -webkit-text-stroke-width: 0px; white-space: nowrap; background-color: rgb(236, 236, 236); text-decoration-thickness: initial; text-decoration-style: initial; text-decoration-color: initial; float: none; display: inline !important;&quot;&gt;$$y$$&lt;/span&gt;" style="text;whiteSpace=wrap;html=1;fontSize=14;" vertex="1" parent="1">
          <mxGeometry x="389" y="-681" width="60" height="40" as="geometry" />
        </mxCell>
        <mxCell id="SDA9QaCyXNHpVYX47S2c-31" value="&lt;span style=&quot;color: rgb(0, 0, 0); font-family: &amp;quot;Times New Roman&amp;quot;; font-style: normal; font-variant-ligatures: normal; font-variant-caps: normal; font-weight: 400; letter-spacing: normal; orphans: 2; text-align: center; text-indent: 0px; text-transform: none; widows: 2; word-spacing: 0px; -webkit-text-stroke-width: 0px; white-space: nowrap; background-color: rgb(236, 236, 236); text-decoration-thickness: initial; text-decoration-style: initial; text-decoration-color: initial; float: none; display: inline !important;&quot;&gt;$$y=g^x \bmod p$$&lt;/span&gt;" style="text;whiteSpace=wrap;html=1;fontSize=14;" vertex="1" parent="1">
          <mxGeometry x="252" y="-706.67" width="120" height="40" as="geometry" />
        </mxCell>
        <mxCell id="SDA9QaCyXNHpVYX47S2c-38" style="edgeStyle=orthogonalEdgeStyle;rounded=0;orthogonalLoop=1;jettySize=auto;html=1;exitX=1;exitY=0.5;exitDx=0;exitDy=0;entryX=0;entryY=0.5;entryDx=0;entryDy=0;fontSize=14;" edge="1" parent="1" target="SDA9QaCyXNHpVYX47S2c-37">
          <mxGeometry relative="1" as="geometry">
            <mxPoint x="301" y="-523.5" as="sourcePoint" />
          </mxGeometry>
        </mxCell>
        <mxCell id="SDA9QaCyXNHpVYX47S2c-34" value="$$R=g^r \bmod p$$" style="text;html=1;align=center;verticalAlign=middle;resizable=0;points=[];autosize=1;strokeColor=none;fillColor=none;fontSize=14;" vertex="1" parent="1">
          <mxGeometry x="129" y="-544" width="150" height="30" as="geometry" />
        </mxCell>
        <mxCell id="SDA9QaCyXNHpVYX47S2c-35" value="$$h=Hash(y, R, m)$$" style="text;html=1;align=center;verticalAlign=middle;resizable=0;points=[];autosize=1;strokeColor=none;fillColor=none;fontSize=14;" vertex="1" parent="1">
          <mxGeometry x="143" y="-524" width="160" height="30" as="geometry" />
        </mxCell>
        <mxCell id="SDA9QaCyXNHpVYX47S2c-36" value="$$s=r+x\cdot h&amp;nbsp; \bmod q$$" style="text;html=1;align=center;verticalAlign=middle;resizable=0;points=[];autosize=1;strokeColor=none;fillColor=none;fontSize=14;" vertex="1" parent="1">
          <mxGeometry x="128" y="-506" width="190" height="30" as="geometry" />
        </mxCell>
        <mxCell id="SDA9QaCyXNHpVYX47S2c-37" value="" style="rounded=0;whiteSpace=wrap;html=1;fontSize=14;" vertex="1" parent="1">
          <mxGeometry x="426" y="-565" width="150" height="84" as="geometry" />
        </mxCell>
        <mxCell id="SDA9QaCyXNHpVYX47S2c-39" value="&lt;font face=&quot;Times New Roman&quot;&gt;Gửi&lt;/font&gt;" style="text;html=1;align=center;verticalAlign=middle;resizable=0;points=[];autosize=1;strokeColor=none;fillColor=none;fontSize=14;" vertex="1" parent="1">
          <mxGeometry x="306" y="-552" width="50" height="30" as="geometry" />
        </mxCell>
        <mxCell id="SDA9QaCyXNHpVYX47S2c-40" value="$$(m, h, s)$$" style="text;html=1;align=center;verticalAlign=middle;resizable=0;points=[];autosize=1;strokeColor=none;fillColor=none;fontSize=14;" vertex="1" parent="1">
          <mxGeometry x="320" y="-552" width="110" height="30" as="geometry" />
        </mxCell>
        <mxCell id="SDA9QaCyXNHpVYX47S2c-42" value="$$R&#39;=g^s\cdot y^{-h} \bmod p$$" style="text;html=1;align=center;verticalAlign=middle;resizable=0;points=[];autosize=1;strokeColor=none;fillColor=none;fontSize=14;" vertex="1" parent="1">
          <mxGeometry x="390" y="-559" width="220" height="30" as="geometry" />
        </mxCell>
        <mxCell id="SDA9QaCyXNHpVYX47S2c-43" value="$$h&#39;=Hash(y, R&#39;, m)$$" style="text;html=1;align=center;verticalAlign=middle;resizable=0;points=[];autosize=1;strokeColor=none;fillColor=none;fontSize=14;" vertex="1" parent="1">
          <mxGeometry x="421" y="-537" width="160" height="30" as="geometry" />
        </mxCell>
        <mxCell id="SDA9QaCyXNHpVYX47S2c-44" value="$$h&#39; \stackrel{?}{=} h$$" style="text;html=1;align=center;verticalAlign=middle;resizable=0;points=[];autosize=1;strokeColor=none;fillColor=none;fontSize=14;" vertex="1" parent="1">
          <mxGeometry x="420" y="-518" width="170" height="30" as="geometry" />
        </mxCell>
        <mxCell id="SDA9QaCyXNHpVYX47S2c-45" value="&lt;font face=&quot;Times New Roman&quot;&gt;So sánh&lt;/font&gt;" style="text;html=1;align=center;verticalAlign=middle;resizable=0;points=[];autosize=1;strokeColor=none;fillColor=none;fontSize=14;" vertex="1" parent="1">
          <mxGeometry x="425" y="-514" width="70" height="30" as="geometry" />
        </mxCell>
        <mxCell id="SDA9QaCyXNHpVYX47S2c-46" value="&lt;font face=&quot;Times New Roman&quot;&gt;Chọn ngẫu nhiên&lt;/font&gt;" style="text;html=1;align=center;verticalAlign=middle;resizable=0;points=[];autosize=1;strokeColor=none;fillColor=none;fontSize=14;" vertex="1" parent="1">
          <mxGeometry x="141.5" y="-562" width="120" height="30" as="geometry" />
        </mxCell>
        <mxCell id="SDA9QaCyXNHpVYX47S2c-47" value="$$r\in Z_q$$" style="text;html=1;align=center;verticalAlign=middle;resizable=0;points=[];autosize=1;strokeColor=none;fillColor=none;fontSize=14;" vertex="1" parent="1">
          <mxGeometry x="224.5" y="-562" width="100" height="30" as="geometry" />
        </mxCell>
        <mxCell id="SDA9QaCyXNHpVYX47S2c-52" value="&lt;font face=&quot;Times New Roman&quot;&gt;&lt;b&gt;Ký&lt;/b&gt;&lt;/font&gt;" style="rounded=1;whiteSpace=wrap;html=1;fillColor=#f8cecc;strokeColor=#b85450;fontSize=14;" vertex="1" parent="1">
          <mxGeometry x="163" y="-579" width="46" height="20" as="geometry" />
        </mxCell>
        <mxCell id="SDA9QaCyXNHpVYX47S2c-53" value="&lt;font face=&quot;Times New Roman&quot;&gt;&lt;b&gt;Xác thực&lt;/b&gt;&lt;/font&gt;" style="rounded=1;whiteSpace=wrap;html=1;fillColor=#f8cecc;strokeColor=#b85450;fontSize=14;" vertex="1" parent="1">
          <mxGeometry x="517" y="-580" width="58" height="20" as="geometry" />
        </mxCell>
        <mxCell id="SDA9QaCyXNHpVYX47S2c-55" value="$$x\in Z_q$$" style="text;html=1;align=center;verticalAlign=middle;resizable=0;points=[];autosize=1;strokeColor=none;fillColor=none;fontSize=14;" vertex="1" parent="1">
          <mxGeometry x="129" y="-691.67" width="100" height="30" as="geometry" />
        </mxCell>
        <mxCell id="SDA9QaCyXNHpVYX47S2c-56" value="&lt;span style=&quot;font-family: &amp;quot;Times New Roman&amp;quot;;&quot;&gt;$$(p, q, g, Hash, y)$$&lt;/span&gt;" style="text;html=1;align=center;verticalAlign=middle;resizable=0;points=[];autosize=1;strokeColor=none;fillColor=none;fontSize=14;" vertex="1" parent="1">
          <mxGeometry x="468" y="-622" width="150" height="30" as="geometry" />
        </mxCell>
        <mxCell id="SDA9QaCyXNHpVYX47S2c-58" value="&lt;span style=&quot;font-family: &amp;quot;Times New Roman&amp;quot;;&quot;&gt;$$(p, q, g, Hash)$$&lt;/span&gt;" style="text;html=1;align=center;verticalAlign=middle;resizable=0;points=[];autosize=1;strokeColor=none;fillColor=none;fontSize=14;" vertex="1" parent="1">
          <mxGeometry x="367" y="-761" width="130" height="30" as="geometry" />
        </mxCell>
        <mxCell id="SDA9QaCyXNHpVYX47S2c-59" value="&lt;font face=&quot;Times New Roman&quot;&gt;Tham số hệ thống&lt;/font&gt;" style="text;html=1;align=center;verticalAlign=middle;resizable=0;points=[];autosize=1;strokeColor=none;fillColor=none;fontSize=14;" vertex="1" parent="1">
          <mxGeometry x="277" y="-761" width="120" height="30" as="geometry" />
        </mxCell>
      </root>
    </mxGraphModel>
  </diagram>
</mxfile>
